<?xml version="1.0" encoding="UTF-8"?>
<svg xmlns="http://www.w3.org/2000/svg" viewBox="0 0 1134.67 1032">
  <defs>
    <style>
      .cls-1 {
        fill: #f9f9f9;
      }

      .cls-2 {
        fill: #d3d3d3;
      }

      .cls-3 {
        fill: #080630;
      }
    </style>
  </defs>
  <g id="line_base_terreo" data-name="line base terreo">
    <g id="line_base">
      <rect class="cls-1" x=".5" y=".5" width="1133.67" height="1031" rx="26.17" ry="26.17"/>
      <path class="cls-2" d="M1108,1c14.15,0,25.67,11.51,25.67,25.67v978.67c0,14.15-11.51,25.67-25.67,25.67H26.67c-14.15,0-25.67-11.51-25.67-25.67V26.67C1,12.51,12.51,1,26.67,1h1081.33M1108,0H26.67C11.94,0,0,11.94,0,26.67v978.67c0,14.73,11.94,26.67,26.67,26.67h1081.33c14.73,0,26.67-11.94,26.67-26.67V26.67c0-14.73-11.94-26.67-26.67-26.67h0Z"/>
    </g>
  </g>
  <g id="L00_nodes">
    <circle id="L00_node_0096" class="cls-3" cx="250.77" cy="528.67" r="1"/>
    <circle id="L00_node_0095" class="cls-3" cx="251.17" cy="556.38" r="1"/>
    <circle id="L00_node_0094" class="cls-3" cx="265.17" cy="528.49" r="1"/>
    <circle id="L00_node_0093" class="cls-3" cx="321.74" cy="556.73" r="1"/>
    <circle id="L00_node_0092" class="cls-3" cx="282.13" cy="556.77" r="1"/>
    <circle id="L00_node_0091" class="cls-3" cx="321.61" cy="528.63" r="1"/>
    <circle id="L00_node_0090" class="cls-3" cx="337.02" cy="528.23" r="1"/>
    <circle id="L00_node_0089_escada_mesanino_01" class="cls-3" cx="282.13" cy="576.15" r="1"/>
    <circle id="L00_node_0088__entrada_templo_01" class="cls-3" cx="321.89" cy="580.53" r="1"/>
    <circle id="L00_node_0087_entrada_av_batel_01" data-name="L00_node_0087_entrada_av_batel 01" class="cls-3" cx="66.69" cy="528.67" r="1"/>
    <circle id="L00_node_0086_entrada_av_batel_02" data-name="L00_node_0086_entrada_av_batel 02" class="cls-3" cx="65.34" cy="556.56" r="1"/>
    <circle id="L00_node_0085" class="cls-3" cx="133.83" cy="556.77" r="1"/>
    <circle id="L00_node_0084" class="cls-3" cx="383.33" cy="528.64" r="1"/>
    <circle id="L00_node_0083" class="cls-3" cx="383.18" cy="492.64" r="1"/>
    <circle id="L00_node_0082_espaco_conexao" class="cls-3" cx="372.41" cy="511.24" r="1"/>
    <circle id="L00_node_0081_elevador_t" class="cls-3" cx="372.21" cy="485.59" r="1"/>
    <circle id="L00_node_0080_livraria_evangelica" class="cls-3" cx="337.02" cy="517.74" r="1"/>
    <circle id="L00_node_0079_escada_lateral_" class="cls-3" cx="397.22" cy="511.24" r="1"/>
    <circle id="L00_node_0078" class="cls-3" cx="396.52" cy="492.67" r="1"/>
    <circle id="L00_node_0077" class="cls-3" cx="383.42" cy="556.38" r="1"/>
    <circle id="L00_node_0076_ceara" class="cls-3" cx="265.04" cy="518" r="1"/>
    <circle id="L00_node_0075_bercario_start" class="cls-3" cx="437.15" cy="543.55" r="1"/>
    <circle id="L00_node_0074_bercario_familia" class="cls-3" cx="459.79" cy="543.55" r="1"/>
    <circle id="L00_node_0073" class="cls-3" cx="470.74" cy="556.3" r="1"/>
    <circle id="L00_node_0072_entrada_templo_02" class="cls-3" cx="470.74" cy="579.97" r="1"/>
    <circle id="L00_node_0071" class="cls-3" cx="510.78" cy="556.53" r="1"/>
    <circle id="L00_node_0070" class="cls-3" cx="488.15" cy="543.31" r="1"/>
    <circle id="L00_node_0069" class="cls-3" cx="510.89" cy="543.31" r="1"/>
    <circle id="L00_node_0068_capela" class="cls-3" cx="536.85" cy="543.31" r="1"/>
    <circle id="L00_node_0067" class="cls-3" cx="536.85" cy="556.77" r="1"/>
    <circle id="L00_node_0066_escada_mesanino_02" class="cls-3" cx="510.89" cy="574.58" r="1"/>
    <circle id="L00_node_0065" class="cls-3" cx="670.56" cy="556.25" r="1"/>
    <circle id="L00_node_0064_abasc" class="cls-3" cx="670.52" cy="571.7" r="1"/>
    <circle id="L00_node_0063_min_esporte" class="cls-3" cx="693.55" cy="605.67" r="1"/>
    <circle id="L00_node_0062" class="cls-3" cx="845.89" cy="587.41" r="1"/>
    <circle id="L00_node_0061" class="cls-3" cx="845.89" cy="578.03" r="1"/>
    <circle id="L00_node_0060" class="cls-3" cx="864.33" cy="578.03" r="1"/>
    <circle id="L00_node_0059_entrada_refeitorio_externo_area_kids_t" class="cls-3" cx="958.87" cy="578.29" r="1"/>
    <circle id="L00_node_0058" class="cls-3" cx="739.78" cy="594.5" r="1"/>
    <circle id="L00_node_0057" class="cls-3" cx="724" cy="602.03" r="1"/>
    <circle id="L00_node_0056" class="cls-3" cx="784.76" cy="578.29" r="1"/>
    <circle id="L00_node_0055" class="cls-3" cx="784.59" cy="601.41" r="1"/>
    <circle id="L00_node_0054_sevenpass" class="cls-3" cx="784.76" cy="557.17" r="1"/>
    <circle id="L00_node_0053_entrada_abasc" class="cls-3" cx="864.33" cy="569.15" r="1"/>
    <circle id="L00_node_0052" class="cls-3" cx="822.71" cy="594.13" r="1"/>
    <circle id="L00_node_0051" class="cls-3" cx="829.17" cy="602.03" r="1"/>
    <circle id="L00_node_0050" class="cls-3" cx="905.39" cy="600.04" r="1"/>
    <circle id="L00_node_0049" class="cls-3" cx="654.28" cy="461.05" r="1.56"/>
    <circle id="L00_node_0048" class="cls-3" cx="654.28" cy="350.99" r="1.5"/>
    <circle id="L00_node_0047" class="cls-3" cx="771" cy="351.26" r="1.5"/>
    <circle id="L00_node_0046" class="cls-3" cx="417.53" cy="351.26" r="1.5"/>
    <circle id="L00_node_0045_rgo" class="cls-3" cx="278.2" cy="329.1" r="1.5"/>
    <circle id="L00_node_0044" class="cls-3" cx="233.54" cy="329.18" r="1.5"/>
    <circle id="L00_node_0043" class="cls-3" cx="187.65" cy="293.51" r="1.5"/>
    <circle id="L00_node_0042_cf" class="cls-3" cx="187.7" cy="279.72" r="1.5"/>
    <circle id="L00_node_0041_cf" class="cls-3" cx="131.15" cy="278.56" r="1.5"/>
    <circle id="L00_node_0040" class="cls-3" cx="131.19" cy="293.51" r="1.5"/>
    <circle id="L00_node_0039" class="cls-3" cx="51.96" cy="368.55" r="1.5"/>
    <circle id="L00_node_0038" class="cls-3" cx="425.14" cy="404.22" r="1.5"/>
    <circle id="L00_node_0037_jardim" class="cls-3" cx="133.83" cy="768.84" r="1"/>
    <circle id="L00_node_0036" class="cls-3" cx="251.73" cy="768.84" r="1"/>
    <circle id="L00_node_0035_espaco_servir" class="cls-3" cx="251.51" cy="788.8" r="1"/>
    <circle id="L00_node_0034" class="cls-3" cx="330.48" cy="872.72" r="1"/>
    <circle id="L00_node_0033_corredor_servir" class="cls-3" cx="294.68" cy="768.77" r="1"/>
    <circle id="L00_node_0032" class="cls-3" cx="905.55" cy="578.03" r="1"/>
    <circle id="L00_node_0031" class="cls-3" cx="670.52" cy="461.1" r="1.56"/>
    <circle id="L00_node_0030_sala_de_oracao_cleude" class="cls-3" cx="602.6" cy="588.86" r="1"/>
    <circle id="L00_node_0029_recepcao" class="cls-3" cx="613.64" cy="556.94" r="1"/>
    <circle id="L00_node_0028" class="cls-3" cx="613.63" cy="588.86" r="1"/>
    <circle id="L00_node_0027" class="cls-3" cx="613.63" cy="599.86" r="1"/>
    <circle id="L00_node_0026_refeitorio_externo_kids_t" class="cls-3" cx="905.39" cy="612.43" r="1"/>
    <circle id="L00_node_0025" class="cls-3" cx="842.6" cy="612.83" r="1"/>
    <circle id="L00_node_0024_entrada_sevenpass_ginasio" class="cls-3" cx="784.31" cy="612.43" r="1"/>
    <circle id="L00_node_0023" class="cls-3" cx="687.78" cy="605.67" r="1"/>
    <circle id="L00_node_0022_estacionamento_01" class="cls-3" cx="866.13" cy="767.15" r="1"/>
    <circle id="L00_node_0021_estacionamento_01" class="cls-3" cx="857.15" cy="780.11" r="1"/>
    <circle id="L00_node_0020" class="cls-3" cx="636.15" cy="780.11" r="1"/>
    <circle id="L00_node_0019" class="cls-3" cx="603.11" cy="780.05" r="1"/>
    <circle id="L00_node_0018_entrada_templo_05" class="cls-3" cx="546.01" cy="666.16" r="1"/>
    <circle id="L00_node_0017" class="cls-3" cx="559.21" cy="666.16" r="1"/>
    <circle id="L00_node_0016_entrada_narnia" class="cls-3" cx="480.85" cy="842.81" r="1"/>
    <circle id="L00_node_0015_entrada_templo_01" class="cls-3" cx="496.97" cy="768.41" r="1"/>
    <circle id="L00_node_0014" class="cls-3" cx="515.07" cy="768.41" r="1"/>
    <circle id="L00_node_0013" class="cls-3" cx="530.86" cy="768.41" r="1"/>
    <circle id="L00_node_0012" class="cls-3" cx="559.22" cy="779.84" r="1"/>
    <circle id="L00_node_0011" class="cls-3" cx="559.21" cy="819.77" r="1"/>
    <circle id="L00_node_0010" class="cls-3" cx="559.21" cy="872.56" r="1"/>
    <circle id="L00_node_0009" class="cls-3" cx="540.57" cy="718.35" r="1"/>
    <circle id="L00_node_0008" class="cls-3" cx="559.21" cy="886.94" r="1"/>
    <circle id="L00_node_0007" class="cls-3" cx="603.11" cy="887.22" r="1"/>
    <circle id="L00_node_0006" class="cls-3" cx="635.92" cy="887.22" r="1"/>
    <circle id="L00_node_0005_estacionamento_bento_02" class="cls-3" cx="635.92" cy="926.02" r="1"/>
    <circle id="L00_node_0004_estacionamento_bento_01" class="cls-3" cx="603.26" cy="926.48" r="1"/>
    <circle id="L00_node_0003_entrada_pedestre_bento" class="cls-3" cx="559.21" cy="945.76" r="1"/>
    <circle id="L00_node_0002" class="cls-3" cx="559.21" cy="718.53" r="1"/>
    <circle id="L00_node_0001_area_kids_t" class="cls-3" cx="957.17" cy="516.78" r="1"/>
  </g>
</svg>